<svg width="152" height="40" viewBox="0 0 152 40" fill="none" xmlns="http://www.w3.org/2000/svg">
    <path d="M119.604 0V3.96694H148.025V32.1157H151.934V0H119.604Z" fill="#ED1C24"/>
    <path d="M15.7156 20.4464C17.0959 20.4464 18.2268 21.0084 19.1082 22.1158L21.2867 20.1654C19.8898 18.4464 18.0272 17.5869 15.7156 17.5869C13.7034 17.5869 12.0237 18.2811 10.66 19.6696C9.29637 21.058 8.5979 22.7439 8.5979 24.7439C8.5979 26.7439 9.27974 28.4299 10.66 29.8183C12.0237 31.2067 13.72 31.901 15.7156 31.901C18.0272 31.901 19.8898 31.0415 21.2867 29.3224L19.1082 27.3886C18.2268 28.496 17.0959 29.058 15.7156 29.058C14.5515 29.058 13.6036 28.6448 12.8386 27.8348C12.0736 27.0084 11.6911 26.0001 11.6911 24.777C11.6911 23.5539 12.0736 22.5456 12.8386 21.7191C13.587 20.8596 14.5515 20.4464 15.7156 20.4464Z" fill="white"/>
    <path d="M29.2859 17.5869C27.257 17.5869 25.5607 18.2811 24.1804 19.6696C22.8001 21.058 22.1183 22.7439 22.1183 24.7439C22.1183 26.7439 22.8001 28.4299 24.1804 29.8183C25.5607 31.2067 27.257 31.901 29.2859 31.901C31.3148 31.901 33.0111 31.2067 34.3914 29.8183C35.7717 28.4299 36.4535 26.7439 36.4535 24.7439C36.4535 22.7439 35.7717 21.058 34.3914 19.6696C33.0111 18.2811 31.2982 17.5869 29.2859 17.5869ZM32.1962 27.8018C31.4478 28.6117 30.4666 29.0249 29.2693 29.0249C28.0719 29.0249 27.0907 28.6117 26.3257 27.8018C25.5607 26.9919 25.1782 25.9671 25.1782 24.7274C25.1782 23.4877 25.5607 22.4629 26.3257 21.653C27.0907 20.8431 28.0719 20.4299 29.2693 20.4299C30.4666 20.4299 31.4478 20.8431 32.1962 21.653C32.9445 22.4629 33.327 23.4877 33.327 24.7274C33.327 25.9671 32.9612 26.9919 32.1962 27.8018Z" fill="white"/>
    <path d="M41.2098 19.2731V17.802H38.1831V31.6367H41.2098V22.5128C41.8584 21.3723 43.5547 20.645 44.9849 20.645C45.6334 20.645 46.1656 20.7442 46.5814 20.926V17.769C46.282 17.6698 45.8995 17.6367 45.4172 17.6367C43.9372 17.6367 42.0912 18.1822 41.2098 19.2731Z" fill="white"/>
    <path d="M55.6614 17.5869C54.0981 17.5869 52.801 18.0497 51.7699 18.9753V17.8183H48.7266V35.5373H51.7533V30.4795C52.801 31.4216 54.0981 31.8844 55.6447 31.8844C57.6237 31.8844 59.2701 31.1902 60.5839 29.8018C61.8977 28.4134 62.5463 26.7274 62.5463 24.7274C62.5463 22.7274 61.8977 21.0415 60.5839 19.653C59.2867 18.2811 57.6403 17.5869 55.6614 17.5869ZM58.3222 27.8183C57.5572 28.6448 56.576 29.0415 55.3786 29.0415C53.7489 29.0415 52.5349 28.4299 51.7699 27.1902V22.2315C52.5349 21.0084 53.7489 20.4134 55.3786 20.4134C56.576 20.4134 57.5572 20.8266 58.3222 21.6365C59.0872 22.4629 59.4697 23.4877 59.4697 24.7274C59.453 25.9671 59.0872 26.9919 58.3222 27.8183Z" fill="white"/>
    <path d="M69.93 23.3881L68.9987 23.0244C68.267 22.7434 67.7515 22.479 67.4854 22.2145C67.2027 21.95 67.0696 21.636 67.0696 21.2393C67.0696 20.8757 67.2193 20.5781 67.5353 20.3467C67.8513 20.1319 68.2171 20.0162 68.6661 20.0162C69.6141 20.0162 70.3458 20.479 70.8447 21.4046L72.8902 19.8509C72.0254 18.2641 70.6119 17.4707 68.6661 17.4707C67.3856 17.4707 66.3046 17.8343 65.4731 18.5781C64.625 19.3219 64.2092 20.2476 64.2092 21.3715C64.2092 23.3385 65.3567 24.76 67.6351 25.6029L68.5664 25.9666C69.3646 26.2476 69.9134 26.512 70.2127 26.7765C70.5287 27.041 70.6784 27.3881 70.6784 27.8178C70.6784 28.2476 70.4955 28.5781 70.1296 28.793C69.7637 29.0244 69.2981 29.1401 68.7493 29.1401C67.5187 29.1401 66.5541 28.5286 65.8723 27.3219L63.4941 28.9253C64.5751 30.8095 66.288 31.7517 68.6329 31.7517C70.0963 31.7517 71.2937 31.3715 72.2084 30.5947C73.123 29.8343 73.572 28.8426 73.572 27.6195C73.572 26.6112 73.2727 25.7517 72.6906 25.074C72.1086 24.4294 71.1939 23.8509 69.93 23.3881Z" fill="white"/>
    <path d="M82.0868 17.5039C80.0579 17.5039 78.3616 18.1981 76.9813 19.5866C75.601 20.975 74.9192 22.6609 74.9192 24.6609C74.9192 26.6609 75.601 28.3469 76.9813 29.7353C78.3616 31.1237 80.0579 31.818 82.0868 31.818C84.1157 31.818 85.812 31.1237 87.1923 29.7353C88.5726 28.3469 89.2544 26.6609 89.2544 24.6609C89.2544 22.6609 88.5726 20.975 87.1923 19.5866C85.7954 18.1981 84.0991 17.5039 82.0868 17.5039ZM84.9971 27.7188C84.2487 28.5287 83.2676 28.9419 82.0702 28.9419C80.8728 28.9419 79.8916 28.5287 79.1266 27.7188C78.3616 26.9089 77.9791 25.8841 77.9791 24.6444C77.9791 23.4047 78.3616 22.3799 79.1266 21.57C79.8916 20.7601 80.8728 20.3469 82.0702 20.3469C83.2676 20.3469 84.2321 20.7601 84.9971 21.57C85.7455 22.3799 86.128 23.4047 86.128 24.6444C86.128 25.8841 85.7621 26.8923 84.9971 27.7188Z" fill="white"/>
    <path d="M108.296 21.3222L109.244 18.6115H104.92V13.9834L101.893 15.8346V18.6115H100.014V21.3222H101.893V27.471C101.893 28.7933 102.259 29.8181 102.991 30.5123C103.723 31.2065 104.754 31.5702 106.084 31.5702H108.812V28.8099H106.799C106.117 28.8099 105.635 28.6446 105.352 28.3305C105.07 27.9999 104.92 27.5041 104.92 26.8264V21.3222H108.296Z" fill="white"/>
    <path d="M92.2144 14.0827C91.7322 14.5125 91.4162 15.0083 91.2665 15.6034C91.1834 15.9009 91.1501 16.2149 91.1501 16.562C91.1501 16.2315 91.2 15.9009 91.2665 15.6034C91.1834 15.8678 91.1335 16.1653 91.1335 16.4629C91.1335 16.562 91.1335 16.6612 91.1501 16.7604V16.7769C91.1501 16.7769 91.1501 16.7769 91.1501 16.7934C91.2332 17.4215 91.516 17.8678 91.516 17.8844C91.6823 18.1653 91.8818 18.3968 92.1147 18.6116H89.9028V21.3224H92.0481V31.5703H95.0748V21.3224H98.6836V18.6116C98.6836 18.6116 96.7877 18.6116 95.8398 18.6282C95.5405 18.6282 95.3243 18.6282 95.3076 18.6282C94.526 18.6282 93.9107 18.0001 93.9107 17.2397C93.9107 16.4794 94.5426 15.8513 95.3076 15.8513C95.3409 15.8513 98.6836 15.8513 98.6836 15.8513V13.124H95.0416C93.8774 13.124 92.9295 13.4381 92.2144 14.0827Z" fill="white"/>
    <path d="M117.276 5.53711V34.5288H146.445V5.53711H117.276ZM126.955 16.1983C126.639 15.8842 126.223 15.7355 125.724 15.7355C124.71 15.7355 123.978 16.2479 123.479 17.3057L123.429 17.4049L121.184 16.0991L120.951 15.9669L120.985 15.8842C121.051 15.752 121.101 15.6363 121.168 15.5041C121.6 14.7272 122.182 14.0991 122.914 13.6528C123.745 13.1404 124.677 12.8925 125.674 12.8925C126.955 12.8925 128.069 13.2892 128.984 14.0991C129.898 14.8925 130.364 15.9834 130.364 17.3388C130.364 18.7933 129.582 20.314 128.052 21.8346L125.491 24.3801H130.58V27.2065H121.184H121.084V25.0412L121.184 24.9421L125.874 20.1487C126.905 19.0743 127.437 18.1652 127.437 17.4545C127.437 16.9255 127.271 16.5123 126.955 16.1983ZM142.72 24.8429H142.504H141.24V27.19H138.28V24.8429H131.695V22.1983L136.368 13.1735H139.527L134.921 22.1322H138.28V18.8429H141.24V22.1156H142.504H142.72V24.8429Z" fill="white"/>
    <path d="M79.1431 21.5698C78.3781 22.3797 77.9956 23.4045 77.9956 24.6442C77.9956 25.8839 78.3781 26.9087 79.1431 27.7186C79.9081 28.5285 80.8893 28.9417 82.0866 28.9417C83.284 28.9417 84.2485 28.5285 85.0135 27.7186C85.7619 26.9087 86.1444 25.8839 86.1444 24.6442C86.1444 23.4045 85.7619 22.3797 85.0135 21.5698C84.2652 20.7599 83.284 20.3467 82.0866 20.3467C80.8893 20.3467 79.9081 20.7599 79.1431 21.5698Z" fill="#1F0F63"/>
    <path d="M26.3423 21.6528C25.5773 22.4627 25.1948 23.4875 25.1948 24.7272C25.1948 25.9669 25.5773 26.9917 26.3423 27.8016C27.1073 28.6115 28.0885 29.0247 29.2859 29.0247C30.4832 29.0247 31.4644 28.6115 32.2128 27.8016C32.9611 26.9917 33.3436 25.9669 33.3436 24.7272C33.3436 23.4875 32.9611 22.4627 32.2128 21.6528C31.4644 20.8429 30.4832 20.4297 29.2859 20.4297C28.0885 20.4462 27.1073 20.8429 26.3423 21.6528Z" fill="#1F0F63"/>
    <path d="M91.2666 15.6035C91.1834 15.901 91.1501 16.2151 91.1501 16.5622C91.1501 16.2151 91.1834 15.901 91.2666 15.6035Z" fill="#1F0F63"/>
    <path d="M51.7698 27.1899C52.5348 28.4296 53.7488 29.0412 55.3785 29.0412C56.5759 29.0412 57.5571 28.628 58.3221 27.818C59.087 26.9916 59.4695 25.9668 59.4695 24.7271C59.4695 23.4875 59.087 22.4627 58.3221 21.6362C57.5571 20.8098 56.5759 20.4131 55.3785 20.4131C53.7488 20.4131 52.5348 21.0247 51.7698 22.2313V27.1899Z" fill="#1F0F63"/>
    <path d="M121.184 3.9668H120.403H119.621H115.713V7.88415H111.755H0.116455V39.9999H111.755H144.084V36.0825H148.025V32.1156V31.3387V30.5618V3.9668H121.184ZM146.446 30.5453V31.3222V32.099V34.5123H144.084H143.302H142.521H117.276V9.4544V8.67754V7.90068V5.53704H119.621H120.403H121.184H146.446V30.5453ZM105.352 28.3139C105.635 28.6445 106.117 28.7932 106.799 28.7932H108.811V31.5701H106.084C104.77 31.5701 103.723 31.223 102.991 30.5123C102.259 29.818 101.893 28.7932 101.893 27.4709V21.3222H100.014V18.6114H101.893V15.8346L104.92 13.9833V18.5949H109.244L108.296 21.3056H104.903V26.7767C104.92 27.4875 105.053 27.9833 105.352 28.3139ZM95.3243 18.628C95.341 18.628 95.5572 18.628 95.8565 18.628C96.8044 18.628 98.7003 18.6114 98.7003 18.6114V21.3222H95.0915V31.5701H92.0648V21.3222H89.9195V18.6114H92.1313C91.8985 18.3966 91.6823 18.1651 91.5326 17.8842C91.5326 17.8842 91.2499 17.4379 91.1668 16.7932C91.1668 16.7932 91.1668 16.7932 91.1668 16.7767V16.7602C91.1502 16.661 91.1501 16.5618 91.1501 16.4627C91.1501 16.1651 91.2 15.8676 91.2832 15.6032C91.4495 15.0081 91.7488 14.4957 92.2311 14.0825C92.9462 13.4544 93.8941 13.1238 95.0749 13.1238H98.7169V15.8346C98.7169 15.8346 95.3576 15.8346 95.341 15.8346C94.576 15.8346 93.944 16.4627 93.944 17.223C93.9274 17.9999 94.5427 18.628 95.3243 18.628ZM89.2543 24.6445C89.2543 26.6445 88.5725 28.3304 87.1922 29.7189C85.8119 31.1073 84.1156 31.8015 82.0867 31.8015C80.0578 31.8015 78.3615 31.1073 76.9812 29.7189C75.6009 28.3304 74.9191 26.6445 74.9191 24.6445C74.9191 22.6445 75.6009 20.9585 76.9812 19.5701C78.3615 18.1817 80.0578 17.4875 82.0867 17.4875C84.0989 17.4875 85.8119 18.1817 87.1922 19.5701C88.5558 20.9585 89.2543 22.6445 89.2543 24.6445ZM70.2127 26.8098C69.8968 26.5453 69.348 26.2643 68.5663 25.9999L67.6351 25.6362C65.3567 24.7932 64.2092 23.3718 64.2092 21.4048C64.2092 20.2808 64.625 19.3552 65.4731 18.6114C66.3213 17.8676 67.3856 17.504 68.6661 17.504C70.6119 17.504 72.0254 18.2974 72.8902 19.8842L70.8447 21.4379C70.3458 20.5123 69.614 20.0494 68.6661 20.0494C68.2171 20.0494 67.8512 20.1651 67.5353 20.38C67.2193 20.6114 67.0696 20.8924 67.0696 21.2726C67.0696 21.6527 67.2027 21.9833 67.4854 22.2478C67.7681 22.5123 68.267 22.7767 68.9987 23.0577L69.93 23.4213C71.1773 23.8842 72.1086 24.4627 72.6906 25.1404C73.2727 25.818 73.572 26.6775 73.572 27.6858C73.572 28.9089 73.123 29.9007 72.2084 30.661C71.2937 31.4379 70.113 31.818 68.6329 31.818C66.3046 31.818 64.5917 30.8759 63.4941 28.9916L65.8723 27.3883C66.5541 28.6114 67.502 29.2065 68.7493 29.2065C69.2981 29.2065 69.7637 29.0908 70.1296 28.8594C70.4954 28.628 70.6784 28.2974 70.6784 27.8842C70.6784 27.4213 70.5287 27.0742 70.2127 26.8098ZM55.6613 17.5866C57.6403 17.5866 59.2867 18.2808 60.6005 19.6527C61.9143 21.0412 62.5628 22.7271 62.5628 24.7271C62.5628 26.7271 61.9143 28.4131 60.6005 29.8015C59.2867 31.1899 57.6403 31.8842 55.6613 31.8842C54.1147 31.8842 52.8175 31.4213 51.7698 30.4792V35.537H48.7265V17.8015H51.7532V18.9585C52.8009 18.0494 54.0981 17.5866 55.6613 17.5866ZM45.4337 17.6362C45.916 17.6362 46.2985 17.6858 46.5979 17.7685V20.9255C46.1655 20.7437 45.6333 20.6445 45.0014 20.6445C43.5712 20.6445 41.8582 21.3718 41.2263 22.5123V31.6362H38.1996V17.8015H41.2263V19.2726C42.0911 18.1817 43.937 17.6362 45.4337 17.6362ZM36.4534 24.7271C36.4534 26.7271 35.755 28.4131 34.3913 29.8015C33.011 31.1899 31.3147 31.8842 29.2858 31.8842C27.2569 31.8842 25.5607 31.1899 24.1803 29.8015C22.8 28.4131 22.1182 26.7271 22.1182 24.7271C22.1182 22.7271 22.8167 21.0412 24.1803 19.6527C25.5607 18.2643 27.2569 17.5701 29.2858 17.5701C31.3147 17.5701 33.011 18.2643 34.3913 19.6527C35.7716 21.0577 36.4534 22.7437 36.4534 24.7271ZM12.8219 27.785C13.5869 28.6114 14.5515 29.0081 15.6989 29.0081C17.0793 29.0081 18.2101 28.4461 19.0915 27.3387L21.2701 29.2726C19.8731 30.9916 18.0105 31.8511 15.6989 31.8511C13.6867 31.8511 12.007 31.1569 10.6434 29.7685C9.27969 28.38 8.58122 26.6941 8.58122 24.6941C8.58122 22.6941 9.26306 21.0081 10.6434 19.6197C12.007 18.2313 13.7033 17.537 15.6989 17.537C18.0105 17.537 19.8731 18.3965 21.2701 20.1156L19.0915 22.0494C18.2101 20.942 17.0793 20.38 15.6989 20.38C14.5348 20.38 13.5869 20.7932 12.8219 21.6197C12.0569 22.4461 11.6744 23.4544 11.6744 24.6775C11.6911 25.9503 12.0736 26.9751 12.8219 27.785Z" fill="#1F0F63"/>
    <path d="M121.001 15.8842L120.968 15.9669L121.201 16.0991L123.446 17.4049L123.496 17.3057C123.978 16.2479 124.726 15.7355 125.741 15.7355C126.24 15.7355 126.656 15.8842 126.972 16.1983C127.287 16.5123 127.454 16.9256 127.454 17.438C127.454 18.1487 126.922 19.0578 125.891 20.1322L121.201 24.9256L121.101 25.0247V27.19H121.201H130.597V24.3636H125.508L128.069 21.8181C129.599 20.2975 130.381 18.7768 130.381 17.3223C130.381 15.9669 129.915 14.876 129 14.0826C128.086 13.2892 126.972 12.876 125.691 12.876C124.693 12.876 123.762 13.1404 122.93 13.6363C122.199 14.0826 121.617 14.6942 121.184 15.4875C121.118 15.6198 121.051 15.752 121.001 15.8842Z" fill="#1F0F63"/>
    <path d="M138.28 27.1904H141.24V24.8432H142.504H142.72V22.116H142.504H141.24V18.8432H138.28V22.116H134.904L139.527 13.1738H136.368L131.695 22.1986V24.8432H138.28V27.1904Z" fill="#1F0F63"/>
</svg>
