<svg width="40" height="40" fill="none" xmlns="http://www.w3.org/2000/svg"><g stroke="#fff" stroke-width="2" stroke-linecap="round" stroke-linejoin="round"><path d="M30 31.433h-1.267a4.98 4.98 0 00-3.533 1.45L22.35 35.7a3.37 3.37 0 01-4.717 0l-2.85-2.817a5.008 5.008 0 00-3.533-1.45H10c-2.767 0-5-2.216-5-4.95V8.3c0-2.733 2.233-4.95 5-4.95h20c2.767 0 5 2.217 5 4.95v18.183c0 2.717-2.233 4.95-5 4.95z" stroke-miterlimit="10"/><path d="M11.666 15.267a2.824 2.824 0 012.817-2.817 2.824 2.824 0 012.817 2.817c0 3.133-4.45 3.466-5.434 6.45-.2.616.317 1.233.967 1.233H17.3m9.433-.017v-9.517a.965.965 0 00-.7-.933.989.989 0 00-1.1.417c-1.2 1.933-2.5 4.133-3.633 6.066a1.071 1.071 0 000 1.05c.183.317.533.517.916.517h6.117"/></g></svg>