<svg width="40" height="40" fill="none" xmlns="http://www.w3.org/2000/svg"><path d="M36.667 21.667V15c0-8.333-3.334-11.667-11.667-11.667H15C6.667 3.333 3.333 6.667 3.333 15v10c0 8.333 3.334 11.667 11.667 11.667h6.667" stroke="#fff" stroke-width="2" stroke-linecap="round" stroke-linejoin="round"/><path d="M12.217 24.15L16.183 19a1.673 1.673 0 012.35-.3l3.05 2.4a1.686 1.686 0 002.35-.283l3.85-4.967m4.684 10.517l.466.95c.234.466.817.9 1.334 1l.633.1c1.9.316 2.35 1.716.983 3.1l-.583.583c-.383.4-.6 1.167-.483 1.7l.083.35c.517 2.3-.7 3.183-2.7 1.983l-.433-.25c-.517-.3-1.35-.3-1.867 0l-.433.25c-2.017 1.217-3.234.317-2.7-1.983l.083-.35c.117-.533-.1-1.3-.483-1.7l-.584-.583c-1.366-1.384-.916-2.784.984-3.1l.633-.1c.5-.084 1.1-.534 1.333-1l.467-.95c.9-1.817 2.367-1.817 3.267 0z" stroke="#fff" stroke-width="2" stroke-linecap="round" stroke-linejoin="round"/></svg>