<svg width="40" height="40" fill="none" xmlns="http://www.w3.org/2000/svg"><g stroke="#fff" stroke-width="2"><path d="M17.916 4.083c1.15-.983 3.034-.983 4.2 0L24.75 6.35c.5.433 1.433.783 2.1.783h2.833A3.23 3.23 0 0132.9 10.35v2.833c0 .65.35 1.6.783 2.1l2.267 2.633c.983 1.15.983 3.034 0 4.2l-2.267 2.634c-.433.5-.783 1.433-.783 2.1v2.833a3.23 3.23 0 01-3.217 3.217H26.85c-.65 0-1.6.35-2.1.783l-2.634 2.267c-1.15.983-3.033.983-4.2 0l-2.633-2.267c-.5-.433-1.433-.783-2.1-.783H10.3a3.23 3.23 0 01-3.217-3.217v-2.85c0-.65-.35-1.583-.767-2.083l-2.25-2.65c-.966-1.15-.966-3.017 0-4.167l2.25-2.65c.417-.5.767-1.433.767-2.083v-2.85A3.23 3.23 0 0110.3 7.133h2.883c.65 0 1.6-.35 2.1-.783l2.633-2.267z" stroke-linecap="round" stroke-linejoin="round"/><path d="M16.484 24.7l2.416 1.867c.317.316 1.017.466 1.484.466h2.95c.933 0 1.95-.7 2.183-1.633l1.867-5.7c.383-1.083-.317-2.033-1.484-2.033h-3.116c-.467 0-.85-.384-.784-.934l.384-2.5c.15-.7-.317-1.483-1.017-1.716-.617-.233-1.4.083-1.717.55l-3.2 4.75" stroke-miterlimit="10"/><path d="M12.5 24.7v-7.633c0-1.1.467-1.483 1.567-1.483h.783c1.083 0 1.567.383 1.567 1.483V24.7c0 1.083-.467 1.483-1.567 1.483h-.783c-1.1 0-1.567-.383-1.567-1.483z" stroke-linecap="round" stroke-linejoin="round"/></g></svg>